%TF.GenerationSoftware,Altium Limited,Altium Designer,24.4.1 (13)*%
G04 Layer_Color=0*
%FSLAX45Y45*%
%MOMM*%
%TF.SameCoordinates,9860FC65-6E59-49BE-95FE-00A45DA03842*%
%TF.FilePolarity,Positive*%
%TF.FileFunction,Plated,1,4,PTH,Drill*%
%TF.Part,Single*%
G01*
G75*
%TA.AperFunction,OtherDrill,Pad Free-TH (34.25mm,4.65mm)*%
%ADD82C,1.15200*%
%TA.AperFunction,OtherDrill,Pad Free-TH (0.75mm,29.95mm)*%
%ADD83C,1.15200*%
%TA.AperFunction,OtherDrill,Pad Free-TH (-92.473mm,-69.848mm)*%
%ADD84C,1.15200*%
%TA.AperFunction,OtherDrill,Pad Free-MH (32.625mm,1.75mm)*%
%ADD85C,2.40000*%
%TA.AperFunction,OtherDrill,Pad Free-MH (2.125mm,2mm)*%
%ADD86C,2.40000*%
%TA.AperFunction,OtherDrill,Pad Free-MH (31.875mm,31.75mm)*%
%ADD87C,2.40000*%
%TA.AperFunction,OtherDrill,Pad Free-MH (1.875mm,32mm)*%
%ADD88C,2.40000*%
%TA.AperFunction,ViaDrill,NotFilled*%
%ADD89C,0.40000*%
%ADD90C,0.30000*%
%ADD91C,0.25000*%
%ADD92C,0.20000*%
D82*
X3425000Y465000D02*
D03*
D83*
X75000Y2995000D02*
D03*
D84*
X-9247300Y-6984800D02*
D03*
D85*
X3262500Y175000D02*
D03*
D86*
X212500Y200000D02*
D03*
D87*
X3187500Y3175000D02*
D03*
D88*
X187500Y3200000D02*
D03*
D89*
X3237507Y2900005D02*
D03*
X3337507Y2700005D02*
D03*
X3237507Y2500005D02*
D03*
Y1300005D02*
D03*
X3337507Y1100004D02*
D03*
X3237507Y900004D02*
D03*
X3337507Y700004D02*
D03*
X3237507Y500004D02*
D03*
X3037507Y3300006D02*
D03*
Y2900005D02*
D03*
X3137507Y2700005D02*
D03*
X3037507Y2500005D02*
D03*
X3137507Y1500005D02*
D03*
X3037507Y1300005D02*
D03*
X3137507Y1100004D02*
D03*
X3037507Y900004D02*
D03*
X3137507Y700004D02*
D03*
X3037507Y500004D02*
D03*
Y100004D02*
D03*
X2837507Y3300006D02*
D03*
X2937507Y3100005D02*
D03*
X2837507Y2900005D02*
D03*
X2937507Y2700005D02*
D03*
X2837507Y2500005D02*
D03*
X2937507Y2300005D02*
D03*
Y1100004D02*
D03*
X2837507Y900004D02*
D03*
X2937507Y300004D02*
D03*
X2837507Y100004D02*
D03*
X2637507Y3300006D02*
D03*
X2737507Y2300005D02*
D03*
X2637507Y2100005D02*
D03*
Y1300005D02*
D03*
Y900004D02*
D03*
X2737507Y300004D02*
D03*
X2437506Y2900005D02*
D03*
X2537506Y2700005D02*
D03*
X2437506Y2500005D02*
D03*
Y2100005D02*
D03*
Y1300005D02*
D03*
X2537506Y1100004D02*
D03*
X2437506Y900004D02*
D03*
X2237506Y1700005D02*
D03*
X2337506Y700004D02*
D03*
Y300004D02*
D03*
X2137506Y2300005D02*
D03*
X2037506Y2100005D02*
D03*
Y1700005D02*
D03*
X1837506Y2900005D02*
D03*
Y1700005D02*
D03*
X1937506Y1500005D02*
D03*
X1437506Y500004D02*
D03*
X1037506Y2900005D02*
D03*
Y900004D02*
D03*
X737506Y700004D02*
D03*
X437505Y3300006D02*
D03*
X537505Y1100004D02*
D03*
Y700004D02*
D03*
X237505Y1700005D02*
D03*
Y500004D02*
D03*
D90*
X470000Y1950556D02*
D03*
X1077500Y2405000D02*
D03*
X1022500Y2548056D02*
D03*
X1807500Y1315000D02*
D03*
X1940000Y2062500D02*
D03*
X805000Y2965000D02*
D03*
X399500Y1027459D02*
D03*
X2689500Y3027459D02*
D03*
X1970000Y2217500D02*
D03*
X374500Y2319959D02*
D03*
X214499Y2469959D02*
D03*
X372500Y2102500D02*
D03*
X1437500Y2875000D02*
D03*
X1195000Y2732500D02*
D03*
X1595000Y2825000D02*
D03*
X1260000Y62500D02*
D03*
X1722500D02*
D03*
X1392500Y1070000D02*
D03*
X1352500Y632500D02*
D03*
X2980000Y1442500D02*
D03*
X2890000Y2105000D02*
D03*
X2087500Y2885000D02*
D03*
X1885000Y3067500D02*
D03*
X1145000Y2550000D02*
D03*
X2047500Y3200000D02*
D03*
X1112500Y2650000D02*
D03*
D91*
X712500Y1750000D02*
D03*
D92*
X1497500Y1605000D02*
D03*
X1387500D02*
D03*
X1277500D02*
D03*
X1167500D02*
D03*
X1057500D02*
D03*
X1497500Y1715000D02*
D03*
X1387500D02*
D03*
X1277500D02*
D03*
X1167500D02*
D03*
X1057500D02*
D03*
X1497500Y1825000D02*
D03*
X1387500D02*
D03*
X1277500D02*
D03*
X1167500D02*
D03*
X1057500D02*
D03*
X1497500Y1935000D02*
D03*
X1387500D02*
D03*
X1277500D02*
D03*
X1167500D02*
D03*
X1057500D02*
D03*
X1497500Y2045000D02*
D03*
X1387500D02*
D03*
X1277500D02*
D03*
X1167500D02*
D03*
X1057500D02*
D03*
X642500Y2730000D02*
D03*
Y2620000D02*
D03*
X532500D02*
D03*
Y2730000D02*
D03*
%TF.MD5,349f56440555915204ad18749bcebc1c*%
M02*
