%TF.GenerationSoftware,Altium Limited,Altium Designer,24.4.1 (13)*%
G04 Layer_Color=65535*
%FSLAX45Y45*%
%MOMM*%
%TF.SameCoordinates,9860FC65-6E59-49BE-95FE-00A45DA03842*%
%TF.FilePolarity,Positive*%
%TF.FileFunction,Legend,Top*%
%TF.Part,Single*%
G01*
G75*
%TA.AperFunction,NonConductor*%
%ADD14C,0.25400*%
%ADD49C,0.25000*%
%ADD50C,0.20000*%
%ADD51C,0.17500*%
%ADD52C,0.30000*%
%ADD53C,0.19000*%
D14*
X644288Y456328D02*
G03*
X644288Y456328I-10270J0D01*
G01*
X140374Y690368D02*
X120381Y710361D01*
X80394D01*
X60400Y690368D01*
Y610393D01*
X80394Y590400D01*
X120381D01*
X140374Y610393D01*
Y650380D01*
X100387D01*
X180361Y590400D02*
Y710361D01*
X240342D01*
X260335Y690368D01*
Y650380D01*
X240342Y630387D01*
X180361D01*
X300322Y710361D02*
X340309D01*
X320316D01*
Y590400D01*
X300322D01*
X340309D01*
X460271Y710361D02*
X420284D01*
X400290Y690368D01*
Y610393D01*
X420284Y590400D01*
X460271D01*
X480264Y610393D01*
Y690368D01*
X460271Y710361D01*
X955374Y1355368D02*
X935381Y1375361D01*
X895394D01*
X875400Y1355368D01*
Y1335374D01*
X895394Y1315381D01*
X935381D01*
X955374Y1295387D01*
Y1275394D01*
X935381Y1255400D01*
X895394D01*
X875400Y1275394D01*
X995361Y1375361D02*
X1075335D01*
X1035348D01*
Y1255400D01*
X1115322D02*
Y1375361D01*
X1155309Y1335374D01*
X1195297Y1375361D01*
Y1255400D01*
X1235284Y1355368D02*
X1255277Y1375361D01*
X1295264D01*
X1315258Y1355368D01*
Y1335374D01*
X1295264Y1315381D01*
X1275270D01*
X1295264D01*
X1315258Y1295387D01*
Y1275394D01*
X1295264Y1255400D01*
X1255277D01*
X1235284Y1275394D01*
X1435219Y1255400D02*
X1355245D01*
X1435219Y1335374D01*
Y1355368D01*
X1415225Y1375361D01*
X1375238D01*
X1355245Y1355368D01*
X1555180Y1375361D02*
X1475206D01*
Y1315381D01*
X1515193D01*
X1475206D01*
Y1255400D01*
X1655148D02*
Y1375361D01*
X1595167Y1315381D01*
X1675141D01*
X382169Y3001111D02*
X377842Y3153400D01*
X430047Y3104079D01*
X479369Y3156285D01*
X483695Y3003995D01*
X534458Y3005437D02*
X530132Y3157726D01*
X606276Y3159890D01*
X632379Y3135229D01*
X633821Y3084466D01*
X609160Y3058363D01*
X533016Y3056200D01*
X682421Y3162053D02*
X686026Y3035145D01*
X712129Y3010485D01*
X762892Y3011927D01*
X787552Y3038029D01*
X783947Y3164937D01*
X2206967Y2404859D02*
X2181576Y2430251D01*
X2130792D01*
X2105400Y2404859D01*
Y2379467D01*
X2130792Y2354075D01*
X2181576D01*
X2206967Y2328683D01*
Y2303292D01*
X2181576Y2277900D01*
X2130792D01*
X2105400Y2303292D01*
X2257751Y2430251D02*
Y2277900D01*
X2308534Y2328683D01*
X2359318Y2277900D01*
Y2430251D01*
X2410102D02*
Y2277900D01*
X2486277D01*
X2511669Y2303292D01*
Y2404859D01*
X2486277Y2430251D01*
X2410102D01*
D49*
X855000Y2180000D02*
G03*
X855000Y2180000I-12500J0D01*
G01*
X2940000Y1842500D02*
G03*
X2940000Y1842500I-12500J0D01*
G01*
X725000Y2970000D02*
G03*
X725000Y2970000I-12500J0D01*
G01*
X2425000Y929500D02*
G03*
X2425000Y929500I-12500J0D01*
G01*
D50*
X907500Y1455000D02*
X950000D01*
X907500D02*
Y1497500D01*
X1605000Y1455000D02*
X1647500D01*
Y1497500D01*
Y2152500D02*
Y2195000D01*
X1605000D02*
X1647500D01*
X907500D02*
X950000D01*
X907500Y2152500D02*
Y2195000D01*
X2977500Y1570500D02*
X3245000D01*
X2977500Y2379500D02*
X3245000D01*
X2977500Y2332500D02*
Y2379500D01*
Y1570500D02*
Y1617500D01*
X802500Y2460000D02*
Y2492500D01*
X770000Y2460000D02*
X802500D01*
X372500D02*
X405000D01*
X372500D02*
Y2492500D01*
Y2857500D02*
Y2890000D01*
X405000D01*
X802500Y2857500D02*
Y2890000D01*
X770000D02*
X802500D01*
X1737250Y775250D02*
X2387750D01*
X1737250Y424750D02*
Y775250D01*
Y424750D02*
X2387750D01*
Y775250D01*
X254427Y1115715D02*
Y1205000D01*
Y1115715D02*
X377500D01*
D51*
X2564500Y2436500D02*
X2614500Y2486500D01*
Y2836500D01*
X2564500Y2886500D02*
X2614500Y2836500D01*
X1814500Y2411500D02*
Y2911500D01*
Y2411500D02*
X1939500D01*
X1814500Y2911500D02*
X1939500D01*
X2822215Y564715D02*
X2947500D01*
Y435285D02*
Y564715D01*
X2822215Y435285D02*
X2947500D01*
X1772215Y1510285D02*
X1897500D01*
Y1639715D01*
X1772215D02*
X1897500D01*
D52*
X437500Y50000D02*
Y425000D01*
X562500Y550000D01*
X1512500D01*
X1637500Y425000D01*
Y50000D02*
Y425000D01*
D53*
X2653258Y1203999D02*
X2780216D01*
X2805608Y1229391D01*
Y1280175D01*
X2780216Y1305567D01*
X2653258D01*
X2678649Y1457917D02*
X2653258Y1432525D01*
Y1381742D01*
X2678649Y1356350D01*
X2704041D01*
X2729433Y1381742D01*
Y1432525D01*
X2754825Y1457917D01*
X2780216D01*
X2805608Y1432525D01*
Y1381742D01*
X2780216Y1356350D01*
X2653258Y1508701D02*
X2805608D01*
Y1584876D01*
X2780216Y1610268D01*
X2754825D01*
X2729433Y1584876D01*
Y1508701D01*
Y1584876D01*
X2704041Y1610268D01*
X2678649D01*
X2653258Y1584876D01*
Y1508701D01*
X2831000Y1661052D02*
Y1762619D01*
X2678649Y1914969D02*
X2653258Y1889578D01*
Y1838794D01*
X2678649Y1813402D01*
X2780216D01*
X2805608Y1838794D01*
Y1889578D01*
X2780216Y1914969D01*
X2805608Y1991145D02*
Y2041928D01*
X2780216Y2067320D01*
X2729433D01*
X2704041Y2041928D01*
Y1991145D01*
X2729433Y1965753D01*
X2780216D01*
X2805608Y1991145D01*
Y2118104D02*
X2704041D01*
Y2194279D01*
X2729433Y2219671D01*
X2805608D01*
Y2270454D02*
X2704041D01*
Y2346630D01*
X2729433Y2372022D01*
X2805608D01*
%TF.MD5,98a1b6dd08f07bc4fd05b688894ab658*%
M02*
