%TF.GenerationSoftware,Altium Limited,Altium Designer,24.4.1 (13)*%
G04 Layer_Color=16711935*
%FSLAX45Y45*%
%MOMM*%
%TF.SameCoordinates,9860FC65-6E59-49BE-95FE-00A45DA03842*%
%TF.FilePolarity,Negative*%
%TF.FileFunction,Soldermask,Bot*%
%TF.Part,Single*%
G01*
G75*
%TA.AperFunction,ViaPad*%
%ADD70C,1.35520*%
%TA.AperFunction,ComponentPad*%
%ADD71C,1.27020*%
%TA.AperFunction,ViaPad*%
%ADD72C,2.60320*%
%ADD73C,0.90320*%
%ADD74C,0.70320*%
%ADD75C,0.80320*%
D70*
X3425000Y465000D02*
D03*
X75000Y2995000D02*
D03*
X-9247300Y-6984800D02*
D03*
D71*
X1910500Y2763100D02*
D03*
Y2559900D02*
D03*
X2418500Y2661500D02*
D03*
D72*
X3262500Y175000D02*
D03*
X212500Y200000D02*
D03*
X3187500Y3175000D02*
D03*
X187500Y3200000D02*
D03*
D73*
X470000Y1950556D02*
D03*
X1077500Y2405000D02*
D03*
X1022500Y2548056D02*
D03*
X1807500Y1315000D02*
D03*
X1940000Y2062500D02*
D03*
X805000Y2965000D02*
D03*
X399500Y1027459D02*
D03*
X2689500Y3027459D02*
D03*
X1970000Y2217500D02*
D03*
X374500Y2319959D02*
D03*
X214499Y2469959D02*
D03*
X372500Y2102500D02*
D03*
X1437500Y2875000D02*
D03*
X1195000Y2732500D02*
D03*
X1595000Y2825000D02*
D03*
X1260000Y62500D02*
D03*
X1722500D02*
D03*
X1392500Y1070000D02*
D03*
X1352500Y632500D02*
D03*
X2980000Y1442500D02*
D03*
X2890000Y2105000D02*
D03*
X2087500Y2885000D02*
D03*
X1885000Y3067500D02*
D03*
X1145000Y2550000D02*
D03*
X2047500Y3200000D02*
D03*
X1112500Y2650000D02*
D03*
D74*
X1497500Y1605000D02*
D03*
X1387500D02*
D03*
X1277500D02*
D03*
X1167500D02*
D03*
X1057500D02*
D03*
X1497500Y1715000D02*
D03*
X1387500D02*
D03*
X1277500D02*
D03*
X1167500D02*
D03*
X1057500D02*
D03*
X1497500Y1825000D02*
D03*
X1387500D02*
D03*
X1277500D02*
D03*
X1167500D02*
D03*
X1057500D02*
D03*
X1497500Y1935000D02*
D03*
X1387500D02*
D03*
X1277500D02*
D03*
X1167500D02*
D03*
X1057500D02*
D03*
X1497500Y2045000D02*
D03*
X1387500D02*
D03*
X1277500D02*
D03*
X1167500D02*
D03*
X1057500D02*
D03*
X642500Y2730000D02*
D03*
Y2620000D02*
D03*
X532500D02*
D03*
Y2730000D02*
D03*
D75*
X712500Y1750000D02*
D03*
%TF.MD5,de76f96aac7161ab052ef59e7fa495e8*%
M02*
