%TF.GenerationSoftware,Altium Limited,Altium Designer,24.4.1 (13)*%
G04 Layer_Physical_Order=4*
G04 Layer_Color=16711680*
%FSLAX45Y45*%
%MOMM*%
%TF.SameCoordinates,9860FC65-6E59-49BE-95FE-00A45DA03842*%
%TF.FilePolarity,Positive*%
%TF.FileFunction,Copper,L4,Bot,Signal*%
%TF.Part,Single*%
G01*
G75*
%TA.AperFunction,Conductor*%
%ADD12C,0.25000*%
%ADD13C,0.40000*%
%ADD38C,1.00000*%
%ADD40C,0.20000*%
%TA.AperFunction,ViaPad*%
%ADD42C,1.15200*%
%TA.AperFunction,ComponentPad*%
%ADD43C,1.06700*%
%TA.AperFunction,ViaPad*%
%ADD44C,2.40000*%
%ADD45C,0.80000*%
%ADD46C,0.70000*%
%ADD47C,0.60000*%
%ADD48C,0.50000*%
D12*
X1682855Y2480000D02*
X1697500Y2494645D01*
X712500Y2145000D02*
X1047500Y2480000D01*
X1697500Y2494645D02*
Y3080000D01*
X1047500Y2480000D02*
X1682855D01*
X1162500Y2875000D02*
X1437500D01*
X1112500Y2825000D02*
X1162500Y2875000D01*
X1112500Y2650000D02*
Y2825000D01*
X1817500Y3200000D02*
X2047500D01*
X1697500Y3080000D02*
X1817500Y3200000D01*
X712500Y1750000D02*
Y2145000D01*
D13*
X1970000Y2217500D02*
X2367500D01*
X2390000Y2240000D01*
D38*
X2685000Y2535000D02*
Y3027500D01*
X2390000Y2240000D02*
X2685000Y2535000D01*
X372500Y2102500D02*
Y2317097D01*
X1260000Y62500D02*
X1722500D01*
D40*
X1439485Y2760000D02*
X1504485Y2825000D01*
X1595000D01*
X1362500Y2760000D02*
X1439485D01*
X1335000Y2732500D02*
X1362500Y2760000D01*
X1195000Y2732500D02*
X1335000D01*
D42*
X3425000Y465000D02*
D03*
X75000Y2995000D02*
D03*
X-9247300Y-6984800D02*
D03*
D43*
X1910500Y2763100D02*
D03*
Y2559900D02*
D03*
X2418500Y2661500D02*
D03*
D44*
X3262500Y175000D02*
D03*
X212500Y200000D02*
D03*
X3187500Y3175000D02*
D03*
X187500Y3200000D02*
D03*
D45*
X3237507Y2900005D02*
D03*
X3337507Y2700005D02*
D03*
X3237507Y2500005D02*
D03*
Y1300005D02*
D03*
X3337507Y1100004D02*
D03*
X3237507Y900004D02*
D03*
X3337507Y700004D02*
D03*
X3237507Y500004D02*
D03*
X3037507Y3300006D02*
D03*
Y2900005D02*
D03*
X3137507Y2700005D02*
D03*
X3037507Y2500005D02*
D03*
X3137507Y1500005D02*
D03*
X3037507Y1300005D02*
D03*
X3137507Y1100004D02*
D03*
X3037507Y900004D02*
D03*
X3137507Y700004D02*
D03*
X3037507Y500004D02*
D03*
Y100004D02*
D03*
X2837507Y3300006D02*
D03*
X2937507Y3100005D02*
D03*
X2837507Y2900005D02*
D03*
X2937507Y2700005D02*
D03*
X2837507Y2500005D02*
D03*
X2937507Y2300005D02*
D03*
Y1100004D02*
D03*
X2837507Y900004D02*
D03*
X2937507Y300004D02*
D03*
X2837507Y100004D02*
D03*
X2637507Y3300006D02*
D03*
X2737507Y2300005D02*
D03*
X2637507Y2100005D02*
D03*
Y1300005D02*
D03*
Y900004D02*
D03*
X2737507Y300004D02*
D03*
X2437506Y2900005D02*
D03*
X2537506Y2700005D02*
D03*
X2437506Y2500005D02*
D03*
Y2100005D02*
D03*
Y1300005D02*
D03*
X2537506Y1100004D02*
D03*
X2437506Y900004D02*
D03*
X2237506Y1700005D02*
D03*
X2337506Y700004D02*
D03*
Y300004D02*
D03*
X2137506Y2300005D02*
D03*
X2037506Y2100005D02*
D03*
Y1700005D02*
D03*
X1837506Y2900005D02*
D03*
Y1700005D02*
D03*
X1937506Y1500005D02*
D03*
X1437506Y500004D02*
D03*
X1037506Y2900005D02*
D03*
Y900004D02*
D03*
X737506Y700004D02*
D03*
X437505Y3300006D02*
D03*
X537505Y1100004D02*
D03*
Y700004D02*
D03*
X237505Y1700005D02*
D03*
Y500004D02*
D03*
D46*
X470000Y1950556D02*
D03*
X1077500Y2405000D02*
D03*
X1022500Y2548056D02*
D03*
X1807500Y1315000D02*
D03*
X1940000Y2062500D02*
D03*
X805000Y2965000D02*
D03*
X399500Y1027459D02*
D03*
X2689500Y3027459D02*
D03*
X1970000Y2217500D02*
D03*
X374500Y2319959D02*
D03*
X214499Y2469959D02*
D03*
X372500Y2102500D02*
D03*
X1437500Y2875000D02*
D03*
X1195000Y2732500D02*
D03*
X1595000Y2825000D02*
D03*
X1260000Y62500D02*
D03*
X1722500D02*
D03*
X1392500Y1070000D02*
D03*
X1352500Y632500D02*
D03*
X2980000Y1442500D02*
D03*
X2890000Y2105000D02*
D03*
X2087500Y2885000D02*
D03*
X1885000Y3067500D02*
D03*
X1145000Y2550000D02*
D03*
X2047500Y3200000D02*
D03*
X1112500Y2650000D02*
D03*
D47*
X712500Y1750000D02*
D03*
D48*
X1497500Y1605000D02*
D03*
X1387500D02*
D03*
X1277500D02*
D03*
X1167500D02*
D03*
X1057500D02*
D03*
X1497500Y1715000D02*
D03*
X1387500D02*
D03*
X1277500D02*
D03*
X1167500D02*
D03*
X1057500D02*
D03*
X1497500Y1825000D02*
D03*
X1387500D02*
D03*
X1277500D02*
D03*
X1167500D02*
D03*
X1057500D02*
D03*
X1497500Y1935000D02*
D03*
X1387500D02*
D03*
X1277500D02*
D03*
X1167500D02*
D03*
X1057500D02*
D03*
X1497500Y2045000D02*
D03*
X1387500D02*
D03*
X1277500D02*
D03*
X1167500D02*
D03*
X1057500D02*
D03*
X642500Y2730000D02*
D03*
Y2620000D02*
D03*
X532500D02*
D03*
Y2730000D02*
D03*
%TF.MD5,dfa7c3116352051b3aa9b179d9b83c66*%
M02*
