%TF.GenerationSoftware,Altium Limited,Altium Designer,24.4.1 (13)*%
G04 Layer_Physical_Order=1*
G04 Layer_Color=255*
%FSLAX45Y45*%
%MOMM*%
%TF.SameCoordinates,9860FC65-6E59-49BE-95FE-00A45DA03842*%
%TF.FilePolarity,Positive*%
%TF.FileFunction,Copper,L1,Top,Signal*%
%TF.Part,Single*%
G01*
G75*
%TA.AperFunction,Conductor*%
%ADD10C,0.50000*%
%ADD11C,0.30000*%
%ADD12C,0.25000*%
%ADD13C,0.40000*%
%TA.AperFunction,NonConductor*%
%ADD14C,0.25400*%
%TA.AperFunction,SMDPad,CuDef*%
G04:AMPARAMS|DCode=15|XSize=0.6mm|YSize=0.7mm|CornerRadius=0.075mm|HoleSize=0mm|Usage=FLASHONLY|Rotation=90.000|XOffset=0mm|YOffset=0mm|HoleType=Round|Shape=RoundedRectangle|*
%AMROUNDEDRECTD15*
21,1,0.60000,0.55000,0,0,90.0*
21,1,0.45000,0.70000,0,0,90.0*
1,1,0.15000,0.27500,0.22500*
1,1,0.15000,0.27500,-0.22500*
1,1,0.15000,-0.27500,-0.22500*
1,1,0.15000,-0.27500,0.22500*
%
%ADD15ROUNDEDRECTD15*%
G04:AMPARAMS|DCode=16|XSize=0.6mm|YSize=0.7mm|CornerRadius=0.075mm|HoleSize=0mm|Usage=FLASHONLY|Rotation=0.000|XOffset=0mm|YOffset=0mm|HoleType=Round|Shape=RoundedRectangle|*
%AMROUNDEDRECTD16*
21,1,0.60000,0.55000,0,0,0.0*
21,1,0.45000,0.70000,0,0,0.0*
1,1,0.15000,0.22500,-0.27500*
1,1,0.15000,-0.22500,-0.27500*
1,1,0.15000,-0.22500,0.27500*
1,1,0.15000,0.22500,0.27500*
%
%ADD16ROUNDEDRECTD16*%
%ADD17R,5.60000X5.60000*%
%ADD18O,0.25000X0.80000*%
%ADD19O,0.80000X0.25000*%
%ADD20R,1.38000X0.45000*%
%ADD21R,1.55000X1.42500*%
%ADD22R,1.90000X1.00000*%
%ADD23R,1.90000X1.80000*%
%ADD24R,1.30000X1.65000*%
%TA.AperFunction,BGAPad,CuDef*%
%ADD25C,0.86300*%
%TA.AperFunction,SMDPad,CuDef*%
%ADD26R,2.60000X2.70000*%
%ADD27R,0.35000X0.80000*%
%ADD28R,0.85000X0.35000*%
%ADD29R,3.18213X1.25000*%
%ADD30R,1.25000X1.25000*%
G04:AMPARAMS|DCode=31|XSize=0.8mm|YSize=1mm|CornerRadius=0.1mm|HoleSize=0mm|Usage=FLASHONLY|Rotation=180.000|XOffset=0mm|YOffset=0mm|HoleType=Round|Shape=RoundedRectangle|*
%AMROUNDEDRECTD31*
21,1,0.80000,0.80000,0,0,180.0*
21,1,0.60000,1.00000,0,0,180.0*
1,1,0.20000,-0.30000,0.40000*
1,1,0.20000,0.30000,0.40000*
1,1,0.20000,0.30000,-0.40000*
1,1,0.20000,-0.30000,-0.40000*
%
%ADD31ROUNDEDRECTD31*%
G04:AMPARAMS|DCode=32|XSize=0.8mm|YSize=1mm|CornerRadius=0.1mm|HoleSize=0mm|Usage=FLASHONLY|Rotation=90.000|XOffset=0mm|YOffset=0mm|HoleType=Round|Shape=RoundedRectangle|*
%AMROUNDEDRECTD32*
21,1,0.80000,0.80000,0,0,90.0*
21,1,0.60000,1.00000,0,0,90.0*
1,1,0.20000,0.40000,0.30000*
1,1,0.20000,0.40000,-0.30000*
1,1,0.20000,-0.40000,-0.30000*
1,1,0.20000,-0.40000,0.30000*
%
%ADD32ROUNDEDRECTD32*%
G04:AMPARAMS|DCode=33|XSize=1.4mm|YSize=1.7mm|CornerRadius=0.175mm|HoleSize=0mm|Usage=FLASHONLY|Rotation=270.000|XOffset=0mm|YOffset=0mm|HoleType=Round|Shape=RoundedRectangle|*
%AMROUNDEDRECTD33*
21,1,1.40000,1.35000,0,0,270.0*
21,1,1.05000,1.70000,0,0,270.0*
1,1,0.35000,-0.67500,-0.52500*
1,1,0.35000,-0.67500,0.52500*
1,1,0.35000,0.67500,0.52500*
1,1,0.35000,0.67500,-0.52500*
%
%ADD33ROUNDEDRECTD33*%
G04:AMPARAMS|DCode=34|XSize=1.4mm|YSize=1.7mm|CornerRadius=0.175mm|HoleSize=0mm|Usage=FLASHONLY|Rotation=180.000|XOffset=0mm|YOffset=0mm|HoleType=Round|Shape=RoundedRectangle|*
%AMROUNDEDRECTD34*
21,1,1.40000,1.35000,0,0,180.0*
21,1,1.05000,1.70000,0,0,180.0*
1,1,0.35000,-0.52500,0.67500*
1,1,0.35000,0.52500,0.67500*
1,1,0.35000,0.52500,-0.67500*
1,1,0.35000,-0.52500,-0.67500*
%
%ADD34ROUNDEDRECTD34*%
%ADD35R,0.65000X1.70000*%
%ADD36R,1.00000X2.90000*%
G04:AMPARAMS|DCode=37|XSize=1.3mm|YSize=1.1mm|CornerRadius=0.055mm|HoleSize=0mm|Usage=FLASHONLY|Rotation=0.000|XOffset=0mm|YOffset=0mm|HoleType=Round|Shape=RoundedRectangle|*
%AMROUNDEDRECTD37*
21,1,1.30000,0.99000,0,0,0.0*
21,1,1.19000,1.10000,0,0,0.0*
1,1,0.11000,0.59500,-0.49500*
1,1,0.11000,-0.59500,-0.49500*
1,1,0.11000,-0.59500,0.49500*
1,1,0.11000,0.59500,0.49500*
%
%ADD37ROUNDEDRECTD37*%
%TA.AperFunction,Conductor*%
%ADD38C,1.00000*%
%ADD39C,0.80000*%
%ADD40C,0.20000*%
%ADD41C,0.26017*%
%TA.AperFunction,ViaPad*%
%ADD42C,1.15200*%
%TA.AperFunction,ComponentPad*%
%ADD43C,1.06700*%
%TA.AperFunction,ViaPad*%
%ADD44C,2.40000*%
%ADD45C,0.80000*%
%ADD46C,0.70000*%
%ADD47C,0.60000*%
%ADD48C,0.50000*%
G36*
X2992500Y1867500D02*
X3031988D01*
X3041769Y1854800D01*
X3040814Y1850000D01*
X3043531Y1836344D01*
X3045965Y1832700D01*
X3039177Y1820000D01*
X2887500D01*
Y1540000D01*
X2727892D01*
Y1849999D01*
X2727892Y1850000D01*
X2727500Y1851971D01*
Y1870000D01*
X2992500D01*
Y1867500D01*
D02*
G37*
G36*
X2783293Y1482300D02*
X2774819Y1480614D01*
X2764069Y1473431D01*
X2756886Y1462681D01*
X2754364Y1450000D01*
X2754217D01*
X2757321Y1434393D01*
X2766162Y1421162D01*
X2779393Y1412321D01*
X2795000Y1409217D01*
Y1409363D01*
X2857500D01*
Y1335889D01*
X2853945Y1318018D01*
X2846972Y1301185D01*
X2836849Y1286035D01*
X2823965Y1273150D01*
X2808815Y1263027D01*
X2791981Y1256054D01*
X2774110Y1252500D01*
X2707500D01*
Y765784D01*
X2598200D01*
Y765993D01*
X2578418Y762058D01*
X2561647Y750853D01*
X2550442Y734082D01*
X2546507Y714300D01*
X2546717D01*
X2549821Y698693D01*
X2558662Y685462D01*
X2571893Y676621D01*
X2587500Y673517D01*
X2603107Y676621D01*
X2614475Y684217D01*
X2707500D01*
Y664060D01*
X2699127Y643845D01*
X2683655Y628373D01*
X2663440Y620000D01*
X2502500D01*
X2502500Y620000D01*
X2494543Y620000D01*
X2479842Y626090D01*
X2468589Y637342D01*
X2462500Y652043D01*
X2462500Y660000D01*
Y765000D01*
X2462055Y774067D01*
X2458517Y791851D01*
X2451578Y808604D01*
X2441503Y823681D01*
X2428681Y836503D01*
X2413604Y846577D01*
X2396851Y853517D01*
X2379067Y857054D01*
X2370000Y857500D01*
X2202500D01*
Y998481D01*
X2205164Y1004913D01*
X2210087Y1009835D01*
X2216519Y1012500D01*
X2220000D01*
X2222926Y1012788D01*
X2228334Y1015028D01*
X2232472Y1019166D01*
X2234712Y1024573D01*
X2235000Y1027500D01*
Y1210415D01*
X2235001Y1222499D01*
Y1222500D01*
X2239659Y1233320D01*
X2250146Y1243808D01*
X2253024Y1245000D01*
X2257500Y1245000D01*
X2522500Y1245000D01*
X2528841Y1245624D01*
X2540556Y1250477D01*
X2549523Y1259444D01*
X2554375Y1271159D01*
X2555000Y1277500D01*
Y1462949D01*
X2555001Y1475000D01*
Y1475000D01*
X2558061Y1486345D01*
X2563671Y1491955D01*
X2571022Y1495000D01*
X2575000Y1495000D01*
X2782042Y1495000D01*
X2783293Y1482300D01*
D02*
G37*
G36*
X2707500Y1850000D02*
Y1530000D01*
X2697500Y1520000D01*
X2557500D01*
X2327500Y1290000D01*
Y1280000D01*
X2257500D01*
X2187500Y1210000D01*
Y1060000D01*
X1977500D01*
X1907500Y990000D01*
Y840000D01*
X1737500D01*
X1707500Y870000D01*
Y1170000D01*
X1867500D01*
X1977500Y1280000D01*
X2547500Y1850000D01*
Y1860000D01*
X2697500D01*
X2707500Y1850000D01*
D02*
G37*
G36*
X2147500Y580000D02*
X2687500D01*
Y390000D01*
X2267500D01*
Y340000D01*
X2277500D01*
Y180000D01*
X1877500D01*
Y320000D01*
Y550000D01*
X1884019Y560000D01*
X1967500D01*
Y1020000D01*
X2147500D01*
Y580000D01*
D02*
G37*
%LPC*%
G36*
X2301800Y980584D02*
X2286193Y977479D01*
X2272962Y968638D01*
X2262662Y958338D01*
X2253821Y945107D01*
X2250716Y929500D01*
X2253821Y913893D01*
X2262662Y900662D01*
X2275893Y891821D01*
X2291500Y888716D01*
X2307107Y891821D01*
X2320339Y900662D01*
X2330638Y910962D01*
X2339479Y924193D01*
X2342584Y939800D01*
X2339479Y955407D01*
X2330638Y968638D01*
X2317407Y977479D01*
X2301800Y980584D01*
D02*
G37*
G36*
X2073200Y1185686D02*
X2037500D01*
X2023844Y1182969D01*
X2012266Y1175234D01*
X2004531Y1163656D01*
X2001814Y1150000D01*
X2004531Y1136344D01*
X2012266Y1124766D01*
X2023844Y1117031D01*
X2037500Y1114314D01*
X2073200D01*
X2086856Y1117031D01*
X2098434Y1124766D01*
X2106169Y1136344D01*
X2108886Y1150000D01*
X2106169Y1163656D01*
X2098434Y1175234D01*
X2086856Y1182969D01*
X2073200Y1185686D01*
D02*
G37*
%LPD*%
D10*
X687500Y2000000D02*
G03*
X637500Y1950000I0J-50000D01*
G01*
X1627500Y1202500D02*
X1672500Y1247500D01*
Y1285710D02*
X1682500Y1295710D01*
Y1320000D01*
X1672500Y1247500D02*
Y1285710D01*
X1682500Y1320000D02*
X1687500Y1325000D01*
X687500Y2000000D02*
X787500D01*
X637222Y1950278D02*
X637500Y1950000D01*
X470278Y1950278D02*
X637222D01*
X470000Y1950556D02*
X470278Y1950278D01*
X515000Y2097500D02*
X517500Y2100000D01*
X637500D01*
X2165000Y3340000D02*
X2220000Y3285000D01*
X725000Y217500D02*
Y415000D01*
X637500Y2100000D02*
X787500D01*
D11*
X1087500Y2300000D02*
G03*
X1062500Y2275000I0J-25000D01*
G01*
X1392500Y1195000D02*
G03*
X1387500Y1200000I-5000J0D01*
G01*
X1062500Y2225000D02*
Y2275000D01*
X1082500Y2305000D02*
X1087500Y2300000D01*
X1082500Y2305000D02*
Y2400000D01*
X1077500Y2405000D02*
X1082500Y2400000D01*
X1737500Y1425000D02*
X1752500Y1410000D01*
Y1373137D02*
Y1410000D01*
Y1373137D02*
X1807500Y1318137D01*
Y1315000D02*
Y1318137D01*
X1793750Y2056250D02*
X1933750D01*
X1787500Y2050000D02*
X1793750Y2056250D01*
X1933750D02*
X1940000Y2062500D01*
X632501Y1250000D02*
X685000D01*
X707500Y1272500D01*
X592500Y1210000D02*
X632501Y1250000D01*
X707500Y1605104D02*
X742396Y1640000D01*
X707500Y1272500D02*
Y1605104D01*
X782500Y1675000D02*
X787500D01*
X747500Y1640000D02*
X782500Y1675000D01*
X742396Y1640000D02*
X747500D01*
X362500Y1530001D02*
X407500Y1575000D01*
X362500Y1400000D02*
Y1530001D01*
X407500Y1575000D02*
X412500D01*
X537501Y1550000D02*
Y1555000D01*
Y1545000D02*
Y1550000D01*
X517501Y1575000D02*
X537501Y1555000D01*
X412500Y1575000D02*
X517501D01*
X362500Y1400000D02*
X372500D01*
X522500Y1250000D01*
X552500D01*
X592500Y1210000D01*
X987500Y2225000D02*
Y2295000D01*
X2337500Y3075000D02*
Y3167500D01*
X2220000Y3285000D02*
X2337500Y3167500D01*
X1392500Y1070000D02*
Y1195000D01*
X1387500Y1200000D02*
X1402500Y1215000D01*
X237500Y1325000D02*
X352500Y1210000D01*
X792500Y1675000D02*
X837500Y1720000D01*
X787500Y1675000D02*
X792500D01*
X837500Y1720000D02*
Y1725000D01*
X3076500Y1850000D02*
X3081500Y1845000D01*
X2037500Y1150000D02*
X2073200D01*
X352500Y1210000D02*
X362500D01*
X592500Y1400000D02*
X612500Y1419999D01*
Y1475000D01*
X637500Y1500000D01*
Y1549999D01*
X637501Y1550000D01*
X637500Y1675000D02*
X637501Y1675000D01*
Y1550000D02*
Y1675000D01*
X1587500Y1320000D02*
Y1325000D01*
X1622604Y1439896D02*
X1652500Y1410000D01*
Y1365000D02*
Y1410000D01*
Y1365000D02*
X1687500Y1330000D01*
Y1325000D02*
Y1330000D01*
X1502500Y1435000D02*
X1572500Y1365000D01*
Y1340000D02*
X1587500Y1325000D01*
X1572500Y1340000D02*
Y1365000D01*
X1662500Y2050000D02*
X1787500D01*
D12*
X462500Y2385355D02*
G03*
X487500Y2325000I85354J0D01*
G01*
X1352500Y632500D02*
G03*
X1350000Y630000I0J-2500D01*
G01*
X2787500Y1450000D02*
G03*
X2795000Y1442500I7500J0D01*
G01*
X2037500Y2725000D02*
G03*
X2087500Y2775000I0J50000D01*
G01*
X1892500Y3075000D02*
G03*
X1885000Y3067500I0J-7500D01*
G01*
X1459757Y2297257D02*
G03*
X1452500Y2279645I17744J-17611D01*
G01*
X1622855Y2450000D02*
G03*
X1605243Y2442743I0J-25000D01*
G01*
X1021916Y2548056D02*
X1022500D01*
X973860Y2500000D02*
X1021916Y2548056D01*
X1018056Y2480556D02*
X1137855D01*
X1152500Y2465911D01*
Y2165000D02*
Y2465911D01*
X762500Y2225000D02*
X1018056Y2480556D01*
X912500Y2500000D02*
X973860D01*
X1660000Y2100000D02*
X1685000Y2125000D01*
X1617500Y2100000D02*
X1660000D01*
X1743432Y1987500D02*
X2087500D01*
X2291500Y2191500D02*
Y2598000D01*
X2087500Y1987500D02*
X2291500Y2191500D01*
X771389Y2956390D02*
X796390D01*
X712500Y2897500D02*
X771389Y2956390D01*
X796390D02*
X805000Y2965000D01*
X712500Y2875000D02*
Y2897500D01*
X1225000Y415000D02*
Y692215D01*
X1282500Y749715D01*
X1252500Y1169145D02*
Y1393861D01*
Y1169145D02*
X1282500Y1139146D01*
X1202500Y1457500D02*
X1207500Y1452500D01*
Y1438860D02*
X1252500Y1393861D01*
X1202500Y1457500D02*
Y1485000D01*
X1282500Y749715D02*
Y1139146D01*
X1207500Y1438860D02*
Y1452500D01*
X399959Y1027459D02*
X582500Y1210000D01*
X592500D01*
X399500Y1027459D02*
X399959D01*
X787500Y2100000D02*
X797855Y2110355D01*
Y2152855D02*
X934645Y2289645D01*
X977145D02*
X987500Y2300000D01*
X797855Y2110355D02*
Y2152855D01*
X934645Y2289645D02*
X977145D01*
X787500Y2100000D02*
X787500Y2100000D01*
X987500Y2295000D02*
Y2300000D01*
X204645Y2225000D02*
X762500D01*
X462500Y2385355D02*
Y2475000D01*
X484979Y2322479D02*
X487500Y2325000D01*
X377020Y2322479D02*
X484979D01*
X374500Y2319959D02*
X377020Y2322479D01*
X190000Y2239645D02*
Y2350000D01*
Y2239645D02*
X204645Y2225000D01*
X190000Y2350000D02*
X298125Y2458125D01*
X223110Y2535610D02*
X255000Y2567500D01*
X223110Y2478569D02*
Y2535610D01*
X214499Y2469959D02*
X223110Y2478569D01*
X359375Y2519375D02*
X390000Y2550000D01*
X359375Y2469375D02*
Y2519375D01*
X298125Y2458125D02*
X348125D01*
X359375Y2469375D01*
X787500Y1370000D02*
Y1575000D01*
X792500D02*
X827856Y1610355D01*
X1437500Y2862823D02*
Y2875000D01*
Y2862823D02*
X1462500Y2837823D01*
X1337500Y2800000D02*
X1362500Y2775000D01*
X785000Y2800000D02*
X1337500D01*
X1462500Y2650000D02*
Y2837823D01*
X635000Y429645D02*
Y432500D01*
X649645Y415000D02*
X725000D01*
X635000Y429645D02*
X649645Y415000D01*
X1350000D02*
Y630000D01*
X2795000Y1442500D02*
X2980000D01*
X2890000Y2105000D02*
X3081500D01*
X2037500Y2725000D02*
Y2741588D01*
X2087500Y2775000D02*
Y2885000D01*
X1892500Y3075000D02*
X2012500D01*
X1257500Y2450000D02*
X1262500D01*
X1202500Y2390000D02*
X1212434Y2399934D01*
X1202500Y2165000D02*
Y2390000D01*
X1212434Y2399934D02*
Y2404934D01*
X1257500Y2450000D01*
X1145000Y2550000D02*
X1262500D01*
X2047500Y3200000D02*
X2112500Y3135000D01*
Y3075000D02*
Y3135000D01*
Y3075000D02*
X2237500D01*
X2164500Y2725000D02*
Y2902000D01*
X2237500Y2975000D02*
Y3075000D01*
X2164500Y2902000D02*
X2237500Y2975000D01*
X2337500Y2850000D02*
Y3075000D01*
X2291500Y2725000D02*
X2293150Y2726650D01*
Y2805650D01*
X2337500Y2850000D01*
X287500Y1525000D02*
Y1600000D01*
X237500Y1475000D02*
X287500Y1525000D01*
Y1600000D02*
X362500Y1675000D01*
X237500Y1325000D02*
Y1475000D01*
X1012500Y2750000D02*
X1112500Y2650000D01*
X785000Y2750000D02*
X1012500D01*
X1362500Y2650000D02*
Y2775000D01*
X305000Y2779038D02*
Y2789068D01*
X261568Y2832500D02*
X305000Y2789068D01*
X255000Y2832500D02*
X261568D01*
X237500Y2850000D02*
X255000Y2832500D01*
X390000Y2750000D02*
X390000Y2750000D01*
X334038Y2750000D02*
X390000D01*
X305000Y2779038D02*
X334038Y2750000D01*
X277500Y2732500D02*
X310000Y2700000D01*
X255000Y2732500D02*
X277500D01*
X310000Y2700000D02*
X390000D01*
X237500Y2750000D02*
X255000Y2732500D01*
X277500Y2567500D02*
X310000Y2600000D01*
X390000D01*
X255000Y2567500D02*
X277500D01*
X237500Y2650000D02*
X390000D01*
X785000Y2600000D02*
X912500D01*
X1645000Y1600000D02*
X1650001Y1595000D01*
X1663640D01*
X1683640Y1575000D02*
X1737500D01*
X1617500Y1600000D02*
X1645000D01*
X1663640Y1595000D02*
X1683640Y1575000D01*
X1252500Y2165000D02*
Y2360355D01*
X1267145Y2375000D01*
X1312500D01*
X1302500Y2215000D02*
X1387500Y2300000D01*
Y2350000D02*
X1462500Y2425000D01*
X1387500Y2300000D02*
Y2350000D01*
X1312500Y2375000D02*
X1362500Y2425000D01*
Y2650000D01*
X1462500Y2425000D02*
Y2650000D01*
X1452500Y2165000D02*
Y2279645D01*
X1302500Y2165000D02*
Y2215000D01*
X1622855Y2450000D02*
X1987500D01*
X1459757Y2297257D02*
X1605243Y2442743D01*
X2037500Y2500000D02*
Y2598000D01*
X1987500Y2450000D02*
X2037500Y2500000D01*
X2012500Y2300000D02*
X2164500Y2452000D01*
Y2598000D01*
X1587500Y2300000D02*
X2012500D01*
X1552500Y2265000D02*
X1587500Y2300000D01*
X1552500Y2165000D02*
Y2265000D01*
X1617500Y2000000D02*
X1730932D01*
X1743432Y1987500D01*
X1152500Y1090000D02*
Y1485000D01*
X1112500Y427500D02*
Y1050000D01*
X1152500Y1090000D01*
X1100000Y415000D02*
X1112500Y427500D01*
X1102500Y1240000D02*
Y1485000D01*
X962500Y1100000D02*
X1102500Y1240000D01*
X962500Y427500D02*
Y1100000D01*
Y427500D02*
X975000Y415000D01*
X850000D02*
Y1162500D01*
X1052500Y1365000D02*
Y1485000D01*
X850000Y1162500D02*
X1052500Y1365000D01*
X827856Y1610355D02*
X847855D01*
X862500Y1625000D01*
Y1666139D01*
X896361Y1700000D01*
X327146Y1877500D02*
X695104D01*
X312501Y1862855D02*
X327146Y1877500D01*
X312501Y1774999D02*
Y1862855D01*
X695104Y1877500D02*
X717604Y1900000D01*
X312501Y1774999D02*
X412500Y1675000D01*
X717604Y1900000D02*
X937500D01*
X723860Y1825000D02*
X748861Y1850000D01*
X937500D01*
X712500Y1750000D02*
X762500Y1800000D01*
X937500D01*
X587500Y1825000D02*
X723860D01*
X896361Y1700000D02*
X937500D01*
X862500Y1750000D02*
X937500D01*
X837500Y1725000D02*
X862500Y1750000D01*
X412500Y1675000D02*
X412500Y1675000D01*
X362500Y1675000D02*
X412500D01*
X537500Y1775000D02*
X587500Y1825000D01*
X537500Y1675000D02*
Y1775000D01*
X1397500Y1350000D02*
X1452500Y1405000D01*
X1387500Y1350000D02*
X1397500D01*
X1452500Y1405000D02*
Y1485000D01*
X1837500Y1425000D02*
Y1500000D01*
Y1425000D02*
X1837500Y1425000D01*
X1837500Y1500000D02*
X1837500Y1500000D01*
Y1575000D01*
X1622604Y1439896D02*
Y1464896D01*
X1602501Y1485000D02*
X1622604Y1464896D01*
X1552500Y1485000D02*
X1602501D01*
X1552500D02*
Y1485000D01*
X1502500Y1435000D02*
Y1485000D01*
X1387500Y1350000D02*
X1387500Y1350000D01*
X587500Y2325000D02*
X662500Y2400000D01*
X712500Y2421538D02*
Y2475000D01*
X690962Y2400000D02*
X712500Y2421538D01*
X712500Y2475000D02*
X712500Y2475000D01*
X662500Y2400000D02*
X690962D01*
X1617500Y2050000D02*
X1662500D01*
X1052500Y2165000D02*
Y2192500D01*
X1062500Y2225000D01*
X987500D02*
X1002500Y2192500D01*
Y2165000D02*
Y2192500D01*
X787500Y2100000D02*
X912500D01*
D13*
X2598200Y725000D02*
G03*
X2587500Y714300I0J-10700D01*
G01*
X1685000Y2125000D02*
X1710000Y2150000D01*
X1902500D01*
X2587500Y500000D02*
X2787500D01*
X1902500Y2150000D02*
X1970000Y2217500D01*
X787500Y1175000D02*
Y1370000D01*
X697500Y1085000D02*
X787500Y1175000D01*
X237500Y2990000D02*
X323150Y3075650D01*
X331850D01*
X237500Y2850000D02*
Y2990000D01*
X110000Y2860000D02*
X227500D01*
X237500Y2850000D01*
X75000Y2825000D02*
X110000Y2860000D01*
X75000Y2702500D02*
Y2825000D01*
X2598200Y725000D02*
X2787500D01*
X2587500Y485700D02*
Y500000D01*
X2787500Y724300D02*
Y725000D01*
X2777500Y714300D02*
X2787500Y724300D01*
X2780350Y492850D02*
X2787500Y500000D01*
X2887500D02*
Y725000D01*
X2062500Y270500D02*
X2159107D01*
X2291500Y929500D02*
X2301800Y939800D01*
X587500Y2325000D02*
Y2330000D01*
X597500Y2340000D01*
D14*
X-37500Y102000D02*
G03*
X114500Y-50000I152000J0D01*
G01*
X3420076Y-49998D02*
G03*
X3537500Y67426I0J117424D01*
G01*
X89500Y3450000D02*
G03*
X-37500Y3323000I0J-127000D01*
G01*
X3537500D02*
G03*
X3410500Y3450000I-127000J0D01*
G01*
X114500Y-50000D02*
X3420076Y-49998D01*
X3537500Y67426D02*
X3537500Y3323000D01*
X89500Y3450000D02*
X187500D01*
X3410500D01*
X-37500Y102000D02*
Y3323000D01*
D15*
X412500Y1575000D02*
D03*
Y1675000D02*
D03*
X787500Y1575000D02*
D03*
Y1675000D02*
D03*
X912500Y2500000D02*
D03*
Y2600000D02*
D03*
X237500Y2850000D02*
D03*
Y2750000D02*
D03*
X237500Y2650000D02*
D03*
Y2550000D02*
D03*
X1262500Y2450000D02*
D03*
Y2550000D02*
D03*
X1787500Y2150000D02*
D03*
Y2050000D02*
D03*
X787500Y2100000D02*
D03*
Y2000000D02*
D03*
D16*
X1737500Y1425000D02*
D03*
X1837500D02*
D03*
X637501Y1550000D02*
D03*
X537501D02*
D03*
X487500Y2325000D02*
D03*
X587500D02*
D03*
X537500Y1675000D02*
D03*
X637500D02*
D03*
X2787500Y500000D02*
D03*
X2887500D02*
D03*
Y725000D02*
D03*
X2787500D02*
D03*
X1262500Y2650000D02*
D03*
X1362500D02*
D03*
X1562500D02*
D03*
X1462500D02*
D03*
X1837500Y1575000D02*
D03*
X1737500D02*
D03*
X2337500Y3075000D02*
D03*
X2237500D02*
D03*
X2112500D02*
D03*
X2012500D02*
D03*
X987500Y2300000D02*
D03*
X1087500D02*
D03*
X1687500Y1325000D02*
D03*
X1587500D02*
D03*
D17*
X1277500Y1825000D02*
D03*
D18*
X1002500Y2165000D02*
D03*
X1052500D02*
D03*
X1102500D02*
D03*
X1152500D02*
D03*
X1202500D02*
D03*
X1252500D02*
D03*
X1302500D02*
D03*
X1352500D02*
D03*
X1402500D02*
D03*
X1452500D02*
D03*
X1502500D02*
D03*
X1552500D02*
D03*
Y1485000D02*
D03*
X1502500D02*
D03*
X1452500D02*
D03*
X1402500D02*
D03*
X1352500D02*
D03*
X1302500D02*
D03*
X1252500D02*
D03*
X1202500D02*
D03*
X1152500D02*
D03*
X1102500D02*
D03*
X1052500D02*
D03*
X1002500D02*
D03*
D19*
X1617500Y2100000D02*
D03*
Y2050000D02*
D03*
Y2000000D02*
D03*
Y1950000D02*
D03*
Y1900000D02*
D03*
Y1850000D02*
D03*
Y1800000D02*
D03*
Y1750000D02*
D03*
Y1700000D02*
D03*
Y1650000D02*
D03*
Y1600000D02*
D03*
Y1550000D02*
D03*
X937500D02*
D03*
Y1600000D02*
D03*
Y1650000D02*
D03*
Y1700000D02*
D03*
Y1750000D02*
D03*
Y1800000D02*
D03*
Y1850000D02*
D03*
Y1900000D02*
D03*
Y1950000D02*
D03*
Y2000000D02*
D03*
Y2050000D02*
D03*
Y2100000D02*
D03*
D20*
X3081500Y2105000D02*
D03*
Y2040000D02*
D03*
Y1975000D02*
D03*
Y1910000D02*
D03*
Y1845000D02*
D03*
D21*
X3090000Y2223750D02*
D03*
Y1726250D02*
D03*
D22*
X3347500Y2130000D02*
D03*
D23*
Y1860000D02*
D03*
D24*
Y2312500D02*
D03*
Y1637500D02*
D03*
D25*
X2291500Y2598000D02*
D03*
X2037500D02*
D03*
X2164500D02*
D03*
X2037500Y2725000D02*
D03*
X2164500D02*
D03*
X2291500D02*
D03*
D26*
X587500Y2675000D02*
D03*
D27*
X462500Y2475000D02*
D03*
X512500D02*
D03*
X562500D02*
D03*
X612500D02*
D03*
X662500D02*
D03*
X712500D02*
D03*
X462500Y2875000D02*
D03*
X512500D02*
D03*
X562500D02*
D03*
X612500D02*
D03*
X662500D02*
D03*
X712500D02*
D03*
D28*
X785000Y2550000D02*
D03*
Y2600000D02*
D03*
Y2650000D02*
D03*
Y2700000D02*
D03*
Y2750000D02*
D03*
Y2800000D02*
D03*
X390000Y2550000D02*
D03*
Y2600000D02*
D03*
Y2650000D02*
D03*
Y2700000D02*
D03*
Y2750000D02*
D03*
Y2800000D02*
D03*
D29*
X2062500Y270500D02*
D03*
D30*
X1833500Y929500D02*
D03*
X2062500D02*
D03*
X2291500D02*
D03*
D31*
X2637500Y1775000D02*
D03*
X2787500D02*
D03*
D32*
X2637500Y1450000D02*
D03*
Y1600000D02*
D03*
X2787500Y1450000D02*
D03*
Y1600000D02*
D03*
X1387500Y1200000D02*
D03*
Y1350000D02*
D03*
X637500Y1950000D02*
D03*
Y2100000D02*
D03*
D33*
X2587500Y714300D02*
D03*
Y485700D02*
D03*
D34*
X2301800Y1150000D02*
D03*
X2073200D02*
D03*
D35*
X725000Y415000D02*
D03*
X850000D02*
D03*
X1100000D02*
D03*
X1225000D02*
D03*
X975000D02*
D03*
X1350000D02*
D03*
D36*
X540000Y135000D02*
D03*
X1535000D02*
D03*
D37*
X592500Y1210000D02*
D03*
Y1400000D02*
D03*
X362500Y1210000D02*
D03*
Y1400000D02*
D03*
D38*
X2165000Y3340000D02*
X2376958D01*
X1780000D02*
X2165000D01*
X2376958D02*
X2689500Y3027459D01*
X75000Y2100000D02*
X422500D01*
X335000Y732500D02*
X635000Y432500D01*
X75000Y992500D02*
X335000Y732500D01*
X347500D01*
X485000Y870000D01*
X75000Y2100000D02*
Y2702500D01*
Y992500D02*
Y2100000D01*
X336200Y3080000D02*
X402500D01*
X525000Y3202500D02*
X1432500D01*
X402500Y3080000D02*
X525000Y3202500D01*
X331850Y3075650D02*
X336200Y3080000D01*
X1642500Y3202500D02*
X1780000Y3340000D01*
X1432500Y3202500D02*
X1642500D01*
X1582500Y2837500D02*
X1595000Y2825000D01*
X1582500Y2837500D02*
Y3052500D01*
X1432500Y3202500D02*
X1582500Y3052500D01*
X880000Y62500D02*
X1260000D01*
X725000Y217500D02*
X880000Y62500D01*
X1655000Y130000D02*
X1722500Y62500D01*
X2445000D02*
X2587500Y205000D01*
X1722500Y62500D02*
X2445000D01*
X1655000Y130000D02*
Y630000D01*
X1545000Y1125000D02*
X1622500Y1202500D01*
X1627500D01*
X1545000Y740000D02*
Y1125000D01*
Y740000D02*
X1655000Y630000D01*
X2587500Y205000D02*
Y485700D01*
D39*
X485000Y872500D02*
X697500Y1085000D01*
X485000Y870000D02*
Y872500D01*
X422500Y2100000D02*
X425000Y2097500D01*
X515000D01*
D40*
X1206716Y2650000D02*
X1262500D01*
X1195000Y2661716D02*
Y2732500D01*
Y2661716D02*
X1206716Y2650000D01*
X1562500Y2778970D02*
X1595000Y2811470D01*
Y2825000D01*
X1562500Y2650000D02*
Y2778970D01*
D41*
X2329826Y1895655D02*
X2353503Y1919331D01*
X1705388Y1895655D02*
X2329826D01*
X1645815Y1948169D02*
X1718404D01*
X2310633Y1941992D02*
X2334309Y1965668D01*
X3072168D01*
X1724582Y1941992D02*
X2310633D01*
X1718404Y1948169D02*
X1724582Y1941992D01*
X1699211Y1901832D02*
X1705388Y1895655D01*
X1645815Y1901832D02*
X1699211D01*
X912500Y2100000D02*
X937500D01*
X1643983Y1900000D02*
X1645815Y1901832D01*
X1617500Y1900000D02*
X1643983D01*
X2353503Y1919331D02*
X3072169D01*
X3081500Y1910000D01*
X1643983Y1950000D02*
X1645815Y1948169D01*
X1617500Y1950000D02*
X1643983D01*
X3072168Y1965668D02*
X3081500Y1975000D01*
D42*
X3425000Y465000D02*
D03*
X75000Y2995000D02*
D03*
X-9247300Y-6984800D02*
D03*
D43*
X1910500Y2763100D02*
D03*
Y2559900D02*
D03*
X2418500Y2661500D02*
D03*
D44*
X3262500Y175000D02*
D03*
X212500Y200000D02*
D03*
X3187500Y3175000D02*
D03*
X187500Y3200000D02*
D03*
D45*
X3237507Y2900005D02*
D03*
X3337507Y2700005D02*
D03*
X3237507Y2500005D02*
D03*
Y1300005D02*
D03*
X3337507Y1100004D02*
D03*
X3237507Y900004D02*
D03*
X3337507Y700004D02*
D03*
X3237507Y500004D02*
D03*
X3037507Y3300006D02*
D03*
Y2900005D02*
D03*
X3137507Y2700005D02*
D03*
X3037507Y2500005D02*
D03*
X3137507Y1500005D02*
D03*
X3037507Y1300005D02*
D03*
X3137507Y1100004D02*
D03*
X3037507Y900004D02*
D03*
X3137507Y700004D02*
D03*
X3037507Y500004D02*
D03*
Y100004D02*
D03*
X2837507Y3300006D02*
D03*
X2937507Y3100005D02*
D03*
X2837507Y2900005D02*
D03*
X2937507Y2700005D02*
D03*
X2837507Y2500005D02*
D03*
X2937507Y2300005D02*
D03*
Y1100004D02*
D03*
X2837507Y900004D02*
D03*
X2937507Y300004D02*
D03*
X2837507Y100004D02*
D03*
X2637507Y3300006D02*
D03*
X2737507Y2300005D02*
D03*
X2637507Y2100005D02*
D03*
Y1300005D02*
D03*
Y900004D02*
D03*
X2737507Y300004D02*
D03*
X2437506Y2900005D02*
D03*
X2537506Y2700005D02*
D03*
X2437506Y2500005D02*
D03*
Y2100005D02*
D03*
Y1300005D02*
D03*
X2537506Y1100004D02*
D03*
X2437506Y900004D02*
D03*
X2237506Y1700005D02*
D03*
X2337506Y700004D02*
D03*
Y300004D02*
D03*
X2137506Y2300005D02*
D03*
X2037506Y2100005D02*
D03*
Y1700005D02*
D03*
X1837506Y2900005D02*
D03*
Y1700005D02*
D03*
X1937506Y1500005D02*
D03*
X1437506Y500004D02*
D03*
X1037506Y2900005D02*
D03*
Y900004D02*
D03*
X737506Y700004D02*
D03*
X437505Y3300006D02*
D03*
X537505Y1100004D02*
D03*
Y700004D02*
D03*
X237505Y1700005D02*
D03*
Y500004D02*
D03*
D46*
X470000Y1950556D02*
D03*
X1077500Y2405000D02*
D03*
X1022500Y2548056D02*
D03*
X1807500Y1315000D02*
D03*
X1940000Y2062500D02*
D03*
X805000Y2965000D02*
D03*
X399500Y1027459D02*
D03*
X2689500Y3027459D02*
D03*
X1970000Y2217500D02*
D03*
X374500Y2319959D02*
D03*
X214499Y2469959D02*
D03*
X372500Y2102500D02*
D03*
X1437500Y2875000D02*
D03*
X1195000Y2732500D02*
D03*
X1595000Y2825000D02*
D03*
X1260000Y62500D02*
D03*
X1722500D02*
D03*
X1392500Y1070000D02*
D03*
X1352500Y632500D02*
D03*
X2980000Y1442500D02*
D03*
X2890000Y2105000D02*
D03*
X2087500Y2885000D02*
D03*
X1885000Y3067500D02*
D03*
X1145000Y2550000D02*
D03*
X2047500Y3200000D02*
D03*
X1112500Y2650000D02*
D03*
D47*
X712500Y1750000D02*
D03*
D48*
X1497500Y1605000D02*
D03*
X1387500D02*
D03*
X1277500D02*
D03*
X1167500D02*
D03*
X1057500D02*
D03*
X1497500Y1715000D02*
D03*
X1387500D02*
D03*
X1277500D02*
D03*
X1167500D02*
D03*
X1057500D02*
D03*
X1497500Y1825000D02*
D03*
X1387500D02*
D03*
X1277500D02*
D03*
X1167500D02*
D03*
X1057500D02*
D03*
X1497500Y1935000D02*
D03*
X1387500D02*
D03*
X1277500D02*
D03*
X1167500D02*
D03*
X1057500D02*
D03*
X1497500Y2045000D02*
D03*
X1387500D02*
D03*
X1277500D02*
D03*
X1167500D02*
D03*
X1057500D02*
D03*
X642500Y2730000D02*
D03*
Y2620000D02*
D03*
X532500D02*
D03*
Y2730000D02*
D03*
%TF.MD5,b3d2379f576c57f4da8e2f3ca7573b1c*%
M02*
