%TF.GenerationSoftware,Altium Limited,Altium Designer,24.4.1 (13)*%
G04 Layer_Color=8388736*
%FSLAX45Y45*%
%MOMM*%
%TF.SameCoordinates,9860FC65-6E59-49BE-95FE-00A45DA03842*%
%TF.FilePolarity,Negative*%
%TF.FileFunction,Soldermask,Top*%
%TF.Part,Single*%
G01*
G75*
%TA.AperFunction,Conductor*%
%ADD12C,0.25000*%
%TA.AperFunction,SMDPad,CuDef*%
%ADD20R,1.38000X0.45000*%
%ADD21R,1.55000X1.42500*%
%ADD22R,1.90000X1.00000*%
%ADD23R,1.90000X1.80000*%
%ADD24R,1.30000X1.65000*%
%ADD29R,3.18213X1.25000*%
%ADD30R,1.25000X1.25000*%
G04:AMPARAMS|DCode=54|XSize=0.8032mm|YSize=0.9032mm|CornerRadius=0.1766mm|HoleSize=0mm|Usage=FLASHONLY|Rotation=90.000|XOffset=0mm|YOffset=0mm|HoleType=Round|Shape=RoundedRectangle|*
%AMROUNDEDRECTD54*
21,1,0.80320,0.55000,0,0,90.0*
21,1,0.45000,0.90320,0,0,90.0*
1,1,0.35320,0.27500,0.22500*
1,1,0.35320,0.27500,-0.22500*
1,1,0.35320,-0.27500,-0.22500*
1,1,0.35320,-0.27500,0.22500*
%
%ADD54ROUNDEDRECTD54*%
G04:AMPARAMS|DCode=55|XSize=0.8032mm|YSize=0.9032mm|CornerRadius=0.1766mm|HoleSize=0mm|Usage=FLASHONLY|Rotation=0.000|XOffset=0mm|YOffset=0mm|HoleType=Round|Shape=RoundedRectangle|*
%AMROUNDEDRECTD55*
21,1,0.80320,0.55000,0,0,0.0*
21,1,0.45000,0.90320,0,0,0.0*
1,1,0.35320,0.22500,-0.27500*
1,1,0.35320,-0.22500,-0.27500*
1,1,0.35320,-0.22500,0.27500*
1,1,0.35320,0.22500,0.27500*
%
%ADD55ROUNDEDRECTD55*%
%ADD56R,5.80320X5.80320*%
%ADD57O,0.45320X1.00320*%
%ADD58O,1.00320X0.45320*%
%TA.AperFunction,BGAPad,CuDef*%
%ADD59C,1.06620*%
%TA.AperFunction,SMDPad,CuDef*%
%ADD60R,2.80320X2.90320*%
%ADD61R,0.55320X1.00320*%
%ADD62R,1.05320X0.55320*%
G04:AMPARAMS|DCode=63|XSize=1.0032mm|YSize=1.2032mm|CornerRadius=0.2016mm|HoleSize=0mm|Usage=FLASHONLY|Rotation=180.000|XOffset=0mm|YOffset=0mm|HoleType=Round|Shape=RoundedRectangle|*
%AMROUNDEDRECTD63*
21,1,1.00320,0.80000,0,0,180.0*
21,1,0.60000,1.20320,0,0,180.0*
1,1,0.40320,-0.30000,0.40000*
1,1,0.40320,0.30000,0.40000*
1,1,0.40320,0.30000,-0.40000*
1,1,0.40320,-0.30000,-0.40000*
%
%ADD63ROUNDEDRECTD63*%
G04:AMPARAMS|DCode=64|XSize=1.0032mm|YSize=1.2032mm|CornerRadius=0.2016mm|HoleSize=0mm|Usage=FLASHONLY|Rotation=90.000|XOffset=0mm|YOffset=0mm|HoleType=Round|Shape=RoundedRectangle|*
%AMROUNDEDRECTD64*
21,1,1.00320,0.80000,0,0,90.0*
21,1,0.60000,1.20320,0,0,90.0*
1,1,0.40320,0.40000,0.30000*
1,1,0.40320,0.40000,-0.30000*
1,1,0.40320,-0.40000,-0.30000*
1,1,0.40320,-0.40000,0.30000*
%
%ADD64ROUNDEDRECTD64*%
G04:AMPARAMS|DCode=65|XSize=1.6032mm|YSize=1.9032mm|CornerRadius=0.2766mm|HoleSize=0mm|Usage=FLASHONLY|Rotation=270.000|XOffset=0mm|YOffset=0mm|HoleType=Round|Shape=RoundedRectangle|*
%AMROUNDEDRECTD65*
21,1,1.60320,1.35000,0,0,270.0*
21,1,1.05000,1.90320,0,0,270.0*
1,1,0.55320,-0.67500,-0.52500*
1,1,0.55320,-0.67500,0.52500*
1,1,0.55320,0.67500,0.52500*
1,1,0.55320,0.67500,-0.52500*
%
%ADD65ROUNDEDRECTD65*%
G04:AMPARAMS|DCode=66|XSize=1.6032mm|YSize=1.9032mm|CornerRadius=0.2766mm|HoleSize=0mm|Usage=FLASHONLY|Rotation=180.000|XOffset=0mm|YOffset=0mm|HoleType=Round|Shape=RoundedRectangle|*
%AMROUNDEDRECTD66*
21,1,1.60320,1.35000,0,0,180.0*
21,1,1.05000,1.90320,0,0,180.0*
1,1,0.55320,-0.52500,0.67500*
1,1,0.55320,0.52500,0.67500*
1,1,0.55320,0.52500,-0.67500*
1,1,0.55320,-0.52500,-0.67500*
%
%ADD66ROUNDEDRECTD66*%
%ADD67R,0.85320X1.90320*%
%ADD68R,1.20320X3.10320*%
G04:AMPARAMS|DCode=69|XSize=1.5032mm|YSize=1.3032mm|CornerRadius=0.1566mm|HoleSize=0mm|Usage=FLASHONLY|Rotation=0.000|XOffset=0mm|YOffset=0mm|HoleType=Round|Shape=RoundedRectangle|*
%AMROUNDEDRECTD69*
21,1,1.50320,0.99000,0,0,0.0*
21,1,1.19000,1.30320,0,0,0.0*
1,1,0.31320,0.59500,-0.49500*
1,1,0.31320,-0.59500,-0.49500*
1,1,0.31320,-0.59500,0.49500*
1,1,0.31320,0.59500,0.49500*
%
%ADD69ROUNDEDRECTD69*%
%TA.AperFunction,ViaPad*%
%ADD70C,1.35520*%
%TA.AperFunction,ComponentPad*%
%ADD71C,1.27020*%
%TA.AperFunction,ViaPad*%
%ADD72C,2.60320*%
%ADD73C,0.90320*%
%ADD74C,0.70320*%
D12*
X214499Y2469959D02*
X223110Y2478569D01*
D20*
X3081500Y2105000D02*
D03*
Y2040000D02*
D03*
Y1975000D02*
D03*
Y1910000D02*
D03*
Y1845000D02*
D03*
D21*
X3090000Y2223750D02*
D03*
Y1726250D02*
D03*
D22*
X3347500Y2130000D02*
D03*
D23*
Y1860000D02*
D03*
D24*
Y2312500D02*
D03*
Y1637500D02*
D03*
D29*
X2062500Y270500D02*
D03*
D30*
X1833500Y929500D02*
D03*
X2062500D02*
D03*
X2291500D02*
D03*
D54*
X412500Y1575000D02*
D03*
Y1675000D02*
D03*
X787500Y1575000D02*
D03*
Y1675000D02*
D03*
X912500Y2500000D02*
D03*
Y2600000D02*
D03*
X237500Y2850000D02*
D03*
Y2750000D02*
D03*
X237500Y2650000D02*
D03*
Y2550000D02*
D03*
X1262500Y2450000D02*
D03*
Y2550000D02*
D03*
X1787500Y2150000D02*
D03*
Y2050000D02*
D03*
X787500Y2100000D02*
D03*
Y2000000D02*
D03*
D55*
X1737500Y1425000D02*
D03*
X1837500D02*
D03*
X637501Y1550000D02*
D03*
X537501D02*
D03*
X487500Y2325000D02*
D03*
X587500D02*
D03*
X537500Y1675000D02*
D03*
X637500D02*
D03*
X2787500Y500000D02*
D03*
X2887500D02*
D03*
Y725000D02*
D03*
X2787500D02*
D03*
X1262500Y2650000D02*
D03*
X1362500D02*
D03*
X1562500D02*
D03*
X1462500D02*
D03*
X1837500Y1575000D02*
D03*
X1737500D02*
D03*
X2337500Y3075000D02*
D03*
X2237500D02*
D03*
X2112500D02*
D03*
X2012500D02*
D03*
X987500Y2300000D02*
D03*
X1087500D02*
D03*
X1687500Y1325000D02*
D03*
X1587500D02*
D03*
D56*
X1277500Y1825000D02*
D03*
D57*
X1002500Y2165000D02*
D03*
X1052500D02*
D03*
X1102500D02*
D03*
X1152500D02*
D03*
X1202500D02*
D03*
X1252500D02*
D03*
X1302500D02*
D03*
X1352500D02*
D03*
X1402500D02*
D03*
X1452500D02*
D03*
X1502500D02*
D03*
X1552500D02*
D03*
Y1485000D02*
D03*
X1502500D02*
D03*
X1452500D02*
D03*
X1402500D02*
D03*
X1352500D02*
D03*
X1302500D02*
D03*
X1252500D02*
D03*
X1202500D02*
D03*
X1152500D02*
D03*
X1102500D02*
D03*
X1052500D02*
D03*
X1002500D02*
D03*
D58*
X1617500Y2100000D02*
D03*
Y2050000D02*
D03*
Y2000000D02*
D03*
Y1950000D02*
D03*
Y1900000D02*
D03*
Y1850000D02*
D03*
Y1800000D02*
D03*
Y1750000D02*
D03*
Y1700000D02*
D03*
Y1650000D02*
D03*
Y1600000D02*
D03*
Y1550000D02*
D03*
X937500D02*
D03*
Y1600000D02*
D03*
Y1650000D02*
D03*
Y1700000D02*
D03*
Y1750000D02*
D03*
Y1800000D02*
D03*
Y1850000D02*
D03*
Y1900000D02*
D03*
Y1950000D02*
D03*
Y2000000D02*
D03*
Y2050000D02*
D03*
Y2100000D02*
D03*
D59*
X2291500Y2598000D02*
D03*
X2037500D02*
D03*
X2164500D02*
D03*
X2037500Y2725000D02*
D03*
X2164500D02*
D03*
X2291500D02*
D03*
D60*
X587500Y2675000D02*
D03*
D61*
X462500Y2475000D02*
D03*
X512500D02*
D03*
X562500D02*
D03*
X612500D02*
D03*
X662500D02*
D03*
X712500D02*
D03*
X462500Y2875000D02*
D03*
X512500D02*
D03*
X562500D02*
D03*
X612500D02*
D03*
X662500D02*
D03*
X712500D02*
D03*
D62*
X785000Y2550000D02*
D03*
Y2600000D02*
D03*
Y2650000D02*
D03*
Y2700000D02*
D03*
Y2750000D02*
D03*
Y2800000D02*
D03*
X390000Y2550000D02*
D03*
Y2600000D02*
D03*
Y2650000D02*
D03*
Y2700000D02*
D03*
Y2750000D02*
D03*
Y2800000D02*
D03*
D63*
X2637500Y1775000D02*
D03*
X2787500D02*
D03*
D64*
X2637500Y1450000D02*
D03*
Y1600000D02*
D03*
X2787500Y1450000D02*
D03*
Y1600000D02*
D03*
X1387500Y1200000D02*
D03*
Y1350000D02*
D03*
X637500Y1950000D02*
D03*
Y2100000D02*
D03*
D65*
X2587500Y714300D02*
D03*
Y485700D02*
D03*
D66*
X2301800Y1150000D02*
D03*
X2073200D02*
D03*
D67*
X725000Y415000D02*
D03*
X850000D02*
D03*
X1100000D02*
D03*
X1225000D02*
D03*
X975000D02*
D03*
X1350000D02*
D03*
D68*
X540000Y135000D02*
D03*
X1535000D02*
D03*
D69*
X592500Y1210000D02*
D03*
Y1400000D02*
D03*
X362500Y1210000D02*
D03*
Y1400000D02*
D03*
D70*
X3425000Y465000D02*
D03*
X75000Y2995000D02*
D03*
X-9247300Y-6984800D02*
D03*
D71*
X1910500Y2763100D02*
D03*
Y2559900D02*
D03*
X2418500Y2661500D02*
D03*
D72*
X3262500Y175000D02*
D03*
X212500Y200000D02*
D03*
X3187500Y3175000D02*
D03*
X187500Y3200000D02*
D03*
D73*
X470000Y1950556D02*
D03*
X1077500Y2405000D02*
D03*
X1022500Y2548056D02*
D03*
X1807500Y1315000D02*
D03*
X1940000Y2062500D02*
D03*
X805000Y2965000D02*
D03*
X399500Y1027459D02*
D03*
X2689500Y3027459D02*
D03*
X1970000Y2217500D02*
D03*
X374500Y2319959D02*
D03*
X214499Y2469959D02*
D03*
X372500Y2102500D02*
D03*
X1437500Y2875000D02*
D03*
X1195000Y2732500D02*
D03*
X1595000Y2825000D02*
D03*
X1260000Y62500D02*
D03*
X1722500D02*
D03*
X1392500Y1070000D02*
D03*
X1352500Y632500D02*
D03*
X2980000Y1442500D02*
D03*
X2890000Y2105000D02*
D03*
X2087500Y2885000D02*
D03*
X1885000Y3067500D02*
D03*
X1145000Y2550000D02*
D03*
X2047500Y3200000D02*
D03*
X1112500Y2650000D02*
D03*
D74*
X1497500Y1605000D02*
D03*
X1387500D02*
D03*
X1277500D02*
D03*
X1167500D02*
D03*
X1057500D02*
D03*
X1497500Y1715000D02*
D03*
X1387500D02*
D03*
X1277500D02*
D03*
X1167500D02*
D03*
X1057500D02*
D03*
X1497500Y1825000D02*
D03*
X1387500D02*
D03*
X1277500D02*
D03*
X1167500D02*
D03*
X1057500D02*
D03*
X1497500Y1935000D02*
D03*
X1387500D02*
D03*
X1277500D02*
D03*
X1167500D02*
D03*
X1057500D02*
D03*
X1497500Y2045000D02*
D03*
X1387500D02*
D03*
X1277500D02*
D03*
X1167500D02*
D03*
X1057500D02*
D03*
X642500Y2730000D02*
D03*
Y2620000D02*
D03*
X532500D02*
D03*
Y2730000D02*
D03*
%TF.MD5,c876399286eb4a07eb726245c4306c08*%
M02*
