%TF.GenerationSoftware,Altium Limited,Altium Designer,24.4.1 (13)*%
G04 Layer_Physical_Order=2*
G04 Layer_Color=36540*
%FSLAX45Y45*%
%MOMM*%
%TF.SameCoordinates,9860FC65-6E59-49BE-95FE-00A45DA03842*%
%TF.FilePolarity,Positive*%
%TF.FileFunction,Copper,L2,Inr,Signal*%
%TF.Part,Single*%
G01*
G75*
%TA.AperFunction,ViaPad*%
%ADD42C,1.15200*%
%TA.AperFunction,ComponentPad*%
%ADD43C,1.06700*%
%TA.AperFunction,ViaPad*%
%ADD44C,2.40000*%
%ADD45C,0.80000*%
%ADD46C,0.70000*%
%ADD47C,0.60000*%
%ADD48C,0.50000*%
G36*
X3404170Y3403851D02*
X3433288Y3391790D01*
X3459494Y3374280D01*
X3481780Y3351994D01*
X3499290Y3325788D01*
X3511351Y3296670D01*
X3517500Y3265759D01*
Y3250000D01*
Y170000D01*
Y153256D01*
X3510967Y120413D01*
X3498152Y89475D01*
X3479548Y61631D01*
X3455869Y37952D01*
X3428025Y19348D01*
X3397087Y6533D01*
X3364243Y0D01*
X1748520D01*
X1745994Y12700D01*
X1753655Y15873D01*
X1769127Y31345D01*
X1777500Y51560D01*
Y73440D01*
X1769127Y93655D01*
X1753655Y109127D01*
X1733440Y117500D01*
X1711560D01*
X1691345Y109127D01*
X1675873Y93655D01*
X1667500Y73440D01*
Y51560D01*
X1675873Y31345D01*
X1691345Y15873D01*
X1699006Y12700D01*
X1696480Y0D01*
X1286020D01*
X1283494Y12700D01*
X1291155Y15873D01*
X1306627Y31345D01*
X1315000Y51560D01*
Y73440D01*
X1306627Y93655D01*
X1291155Y109127D01*
X1270940Y117500D01*
X1249060D01*
X1228845Y109127D01*
X1213373Y93655D01*
X1205000Y73440D01*
Y51560D01*
X1213373Y31345D01*
X1228845Y15873D01*
X1236506Y12700D01*
X1233980Y0D01*
X555511D01*
X551835Y1522D01*
X549022Y4335D01*
X547500Y8011D01*
Y10000D01*
X546923Y15853D01*
X542444Y26667D01*
X534167Y34944D01*
X523353Y39423D01*
X517500Y40000D01*
X57554D01*
X39177Y47612D01*
X25112Y61677D01*
X17500Y80054D01*
Y90000D01*
Y1600000D01*
Y2926471D01*
X30200Y2931261D01*
X45048Y2922688D01*
X64784Y2917400D01*
X85216D01*
X104953Y2922688D01*
X122647Y2932905D01*
X137095Y2947352D01*
X147312Y2965047D01*
X152600Y2984784D01*
Y3005216D01*
X147312Y3024952D01*
X137095Y3042647D01*
X122647Y3057095D01*
X104953Y3067311D01*
X85216Y3072600D01*
X64784D01*
X45048Y3067311D01*
X30200Y3058739D01*
X17500Y3063529D01*
Y3181017D01*
X27261Y3230089D01*
X46408Y3276314D01*
X74205Y3317915D01*
X109584Y3353295D01*
X151186Y3381092D01*
X197411Y3400239D01*
X246483Y3410000D01*
X3373258D01*
X3404170Y3403851D01*
D02*
G37*
%LPC*%
G36*
X2058440Y3255000D02*
X2036560D01*
X2016345Y3246626D01*
X2000874Y3231155D01*
X1992500Y3210940D01*
Y3189060D01*
X2000874Y3168845D01*
X2016345Y3153373D01*
X2036560Y3145000D01*
X2058440D01*
X2078655Y3153373D01*
X2094127Y3168845D01*
X2102500Y3189060D01*
Y3210940D01*
X2094127Y3231155D01*
X2078655Y3246626D01*
X2058440Y3255000D01*
D02*
G37*
G36*
X205931Y3340000D02*
X169069D01*
X133462Y3330459D01*
X101538Y3312028D01*
X75472Y3285962D01*
X57041Y3254038D01*
X47500Y3218431D01*
Y3181569D01*
X57041Y3145962D01*
X75472Y3114038D01*
X101538Y3087972D01*
X133462Y3069541D01*
X169069Y3060000D01*
X205931D01*
X241538Y3069541D01*
X273462Y3087972D01*
X299528Y3114038D01*
X317959Y3145962D01*
X327500Y3181569D01*
Y3218431D01*
X317959Y3254038D01*
X299528Y3285962D01*
X273462Y3312028D01*
X241538Y3330459D01*
X205931Y3340000D01*
D02*
G37*
G36*
X3205931Y3315000D02*
X3169069D01*
X3133462Y3305459D01*
X3101538Y3287028D01*
X3075472Y3260962D01*
X3057041Y3229038D01*
X3047500Y3193431D01*
Y3156569D01*
X3057041Y3120962D01*
X3075472Y3089038D01*
X3101538Y3062972D01*
X3133462Y3044541D01*
X3169069Y3035000D01*
X3205931D01*
X3241538Y3044541D01*
X3273462Y3062972D01*
X3299528Y3089038D01*
X3317959Y3120962D01*
X3327500Y3156569D01*
Y3193431D01*
X3317959Y3229038D01*
X3299528Y3260962D01*
X3273462Y3287028D01*
X3241538Y3305459D01*
X3205931Y3315000D01*
D02*
G37*
G36*
X2700440Y3082458D02*
X2678560D01*
X2658345Y3074085D01*
X2642873Y3058613D01*
X2634500Y3038399D01*
Y3016518D01*
X2642873Y2996304D01*
X2658345Y2980832D01*
X2678560Y2972459D01*
X2700440D01*
X2720654Y2980832D01*
X2736126Y2996304D01*
X2744499Y3016518D01*
Y3038399D01*
X2736126Y3058613D01*
X2720654Y3074085D01*
X2700440Y3082458D01*
D02*
G37*
G36*
X1448440Y2930000D02*
X1426560D01*
X1406345Y2921627D01*
X1390874Y2906155D01*
X1382500Y2885940D01*
Y2864060D01*
X1390874Y2843845D01*
X1406345Y2828374D01*
X1426560Y2820000D01*
X1448440D01*
X1468655Y2828374D01*
X1484127Y2843845D01*
X1492500Y2864060D01*
Y2885940D01*
X1484127Y2906155D01*
X1468655Y2921627D01*
X1448440Y2930000D01*
D02*
G37*
G36*
X1605940Y2880000D02*
X1584060D01*
X1563845Y2871626D01*
X1548373Y2856155D01*
X1540000Y2835940D01*
Y2814060D01*
X1548373Y2793845D01*
X1563845Y2778373D01*
X1584060Y2770000D01*
X1605940D01*
X1626155Y2778373D01*
X1641626Y2793845D01*
X1650000Y2814060D01*
Y2835940D01*
X1641626Y2856155D01*
X1626155Y2871626D01*
X1605940Y2880000D01*
D02*
G37*
G36*
X1205940Y2787500D02*
X1184060D01*
X1163845Y2779127D01*
X1148373Y2763655D01*
X1140000Y2743440D01*
Y2721560D01*
X1144837Y2709884D01*
X1135116Y2700163D01*
X1123440Y2705000D01*
X1101560D01*
X1081345Y2696627D01*
X1065873Y2681155D01*
X1057500Y2660940D01*
Y2639060D01*
X1065873Y2618845D01*
X1081345Y2603374D01*
X1101560Y2595000D01*
X1123440D01*
X1143655Y2603374D01*
X1159126Y2618845D01*
X1167500Y2639060D01*
Y2660940D01*
X1162663Y2672616D01*
X1172383Y2682337D01*
X1184060Y2677500D01*
X1205940D01*
X1226155Y2685873D01*
X1241626Y2701345D01*
X1250000Y2721560D01*
Y2743440D01*
X1241626Y2763655D01*
X1226155Y2779127D01*
X1205940Y2787500D01*
D02*
G37*
G36*
X1920157Y2836450D02*
X1900844D01*
X1882188Y2831451D01*
X1865462Y2821794D01*
X1851806Y2808138D01*
X1842149Y2791412D01*
X1837150Y2772756D01*
Y2753443D01*
X1842149Y2734788D01*
X1851806Y2718062D01*
X1865462Y2704405D01*
X1882188Y2694749D01*
X1900844Y2689750D01*
X1920157D01*
X1938812Y2694749D01*
X1955538Y2704405D01*
X1969195Y2718062D01*
X1978851Y2734788D01*
X1983850Y2753443D01*
Y2772756D01*
X1978851Y2791412D01*
X1969195Y2808138D01*
X1955538Y2821794D01*
X1938812Y2831451D01*
X1920157Y2836450D01*
D02*
G37*
G36*
X2428157Y2734850D02*
X2408844D01*
X2390188Y2729851D01*
X2373462Y2720194D01*
X2359806Y2706538D01*
X2350149Y2689812D01*
X2345150Y2671156D01*
Y2651843D01*
X2350149Y2633188D01*
X2359806Y2616462D01*
X2373462Y2602805D01*
X2390188Y2593149D01*
X2408844Y2588150D01*
X2428157D01*
X2446812Y2593149D01*
X2463538Y2602805D01*
X2477195Y2616462D01*
X2486851Y2633188D01*
X2491850Y2651843D01*
Y2671156D01*
X2486851Y2689812D01*
X2477195Y2706538D01*
X2463538Y2720194D01*
X2446812Y2729851D01*
X2428157Y2734850D01*
D02*
G37*
G36*
X1920157Y2633250D02*
X1900844D01*
X1882188Y2628251D01*
X1865462Y2618594D01*
X1851806Y2604938D01*
X1842149Y2588212D01*
X1837150Y2569556D01*
Y2550243D01*
X1842149Y2531588D01*
X1851806Y2514862D01*
X1865462Y2501205D01*
X1882188Y2491549D01*
X1900844Y2486550D01*
X1920157D01*
X1938812Y2491549D01*
X1955538Y2501205D01*
X1969195Y2514862D01*
X1978851Y2531588D01*
X1983850Y2550243D01*
Y2569556D01*
X1978851Y2588212D01*
X1969195Y2604938D01*
X1955538Y2618594D01*
X1938812Y2628251D01*
X1920157Y2633250D01*
D02*
G37*
G36*
X385440Y2374958D02*
X363560D01*
X343345Y2366585D01*
X327873Y2351113D01*
X319500Y2330899D01*
Y2309018D01*
X327873Y2288804D01*
X343345Y2273332D01*
X363560Y2264959D01*
X385440D01*
X405655Y2273332D01*
X421126Y2288804D01*
X429500Y2309018D01*
Y2330899D01*
X421126Y2351113D01*
X405655Y2366585D01*
X385440Y2374958D01*
D02*
G37*
G36*
X1980940Y2272500D02*
X1959060D01*
X1938845Y2264127D01*
X1923374Y2248655D01*
X1915000Y2228440D01*
Y2206560D01*
X1923374Y2186345D01*
X1938845Y2170873D01*
X1959060Y2162500D01*
X1980940D01*
X2001155Y2170873D01*
X2016627Y2186345D01*
X2025000Y2206560D01*
Y2228440D01*
X2016627Y2248655D01*
X2001155Y2264127D01*
X1980940Y2272500D01*
D02*
G37*
G36*
X383440Y2157500D02*
X361560D01*
X341345Y2149127D01*
X325873Y2133655D01*
X317500Y2113440D01*
Y2091560D01*
X325873Y2071345D01*
X341345Y2055873D01*
X361560Y2047500D01*
X383440D01*
X403655Y2055873D01*
X419126Y2071345D01*
X427500Y2091560D01*
Y2113440D01*
X419126Y2133655D01*
X403655Y2149127D01*
X383440Y2157500D01*
D02*
G37*
G36*
X722446Y1800000D02*
X702554D01*
X684177Y1792388D01*
X670112Y1778323D01*
X662500Y1759946D01*
Y1740054D01*
X670112Y1721677D01*
X684177Y1707612D01*
X702554Y1700000D01*
X722446D01*
X740823Y1707612D01*
X754888Y1721677D01*
X762500Y1740054D01*
Y1759946D01*
X754888Y1778323D01*
X740823Y1792388D01*
X722446Y1800000D01*
D02*
G37*
G36*
X230931Y340000D02*
X194069D01*
X158462Y330459D01*
X126538Y312028D01*
X100472Y285962D01*
X82041Y254038D01*
X72500Y218431D01*
Y181569D01*
X82041Y145962D01*
X100472Y114038D01*
X126538Y87972D01*
X158462Y69541D01*
X194069Y60000D01*
X230931D01*
X266538Y69541D01*
X298462Y87972D01*
X324528Y114038D01*
X342959Y145962D01*
X352500Y181569D01*
Y218431D01*
X342959Y254038D01*
X324528Y285962D01*
X298462Y312028D01*
X266538Y330459D01*
X230931Y340000D01*
D02*
G37*
G36*
X3280931Y315000D02*
X3244069D01*
X3208462Y305459D01*
X3176538Y287028D01*
X3150472Y260962D01*
X3132041Y229038D01*
X3122500Y193431D01*
Y156569D01*
X3132041Y120962D01*
X3150472Y89038D01*
X3176538Y62972D01*
X3208462Y44541D01*
X3244069Y35000D01*
X3280931D01*
X3316538Y44541D01*
X3348462Y62972D01*
X3374528Y89038D01*
X3392959Y120962D01*
X3402500Y156569D01*
Y193431D01*
X3392959Y229038D01*
X3374528Y260962D01*
X3348462Y287028D01*
X3316538Y305459D01*
X3280931Y315000D01*
D02*
G37*
%LPD*%
D42*
X3425000Y465000D02*
D03*
X75000Y2995000D02*
D03*
X-9247300Y-6984800D02*
D03*
D43*
X1910500Y2763100D02*
D03*
Y2559900D02*
D03*
X2418500Y2661500D02*
D03*
D44*
X3262500Y175000D02*
D03*
X212500Y200000D02*
D03*
X3187500Y3175000D02*
D03*
X187500Y3200000D02*
D03*
D45*
X3237507Y2900005D02*
D03*
X3337507Y2700005D02*
D03*
X3237507Y2500005D02*
D03*
Y1300005D02*
D03*
X3337507Y1100004D02*
D03*
X3237507Y900004D02*
D03*
X3337507Y700004D02*
D03*
X3237507Y500004D02*
D03*
X3037507Y3300006D02*
D03*
Y2900005D02*
D03*
X3137507Y2700005D02*
D03*
X3037507Y2500005D02*
D03*
X3137507Y1500005D02*
D03*
X3037507Y1300005D02*
D03*
X3137507Y1100004D02*
D03*
X3037507Y900004D02*
D03*
X3137507Y700004D02*
D03*
X3037507Y500004D02*
D03*
Y100004D02*
D03*
X2837507Y3300006D02*
D03*
X2937507Y3100005D02*
D03*
X2837507Y2900005D02*
D03*
X2937507Y2700005D02*
D03*
X2837507Y2500005D02*
D03*
X2937507Y2300005D02*
D03*
Y1100004D02*
D03*
X2837507Y900004D02*
D03*
X2937507Y300004D02*
D03*
X2837507Y100004D02*
D03*
X2637507Y3300006D02*
D03*
X2737507Y2300005D02*
D03*
X2637507Y2100005D02*
D03*
Y1300005D02*
D03*
Y900004D02*
D03*
X2737507Y300004D02*
D03*
X2437506Y2900005D02*
D03*
X2537506Y2700005D02*
D03*
X2437506Y2500005D02*
D03*
Y2100005D02*
D03*
Y1300005D02*
D03*
X2537506Y1100004D02*
D03*
X2437506Y900004D02*
D03*
X2237506Y1700005D02*
D03*
X2337506Y700004D02*
D03*
Y300004D02*
D03*
X2137506Y2300005D02*
D03*
X2037506Y2100005D02*
D03*
Y1700005D02*
D03*
X1837506Y2900005D02*
D03*
Y1700005D02*
D03*
X1937506Y1500005D02*
D03*
X1437506Y500004D02*
D03*
X1037506Y2900005D02*
D03*
Y900004D02*
D03*
X737506Y700004D02*
D03*
X437505Y3300006D02*
D03*
X537505Y1100004D02*
D03*
Y700004D02*
D03*
X237505Y1700005D02*
D03*
Y500004D02*
D03*
D46*
X470000Y1950556D02*
D03*
X1077500Y2405000D02*
D03*
X1022500Y2548056D02*
D03*
X1807500Y1315000D02*
D03*
X1940000Y2062500D02*
D03*
X805000Y2965000D02*
D03*
X399500Y1027459D02*
D03*
X2689500Y3027459D02*
D03*
X1970000Y2217500D02*
D03*
X374500Y2319959D02*
D03*
X214499Y2469959D02*
D03*
X372500Y2102500D02*
D03*
X1437500Y2875000D02*
D03*
X1195000Y2732500D02*
D03*
X1595000Y2825000D02*
D03*
X1260000Y62500D02*
D03*
X1722500D02*
D03*
X1392500Y1070000D02*
D03*
X1352500Y632500D02*
D03*
X2980000Y1442500D02*
D03*
X2890000Y2105000D02*
D03*
X2087500Y2885000D02*
D03*
X1885000Y3067500D02*
D03*
X1145000Y2550000D02*
D03*
X2047500Y3200000D02*
D03*
X1112500Y2650000D02*
D03*
D47*
X712500Y1750000D02*
D03*
D48*
X1497500Y1605000D02*
D03*
X1387500D02*
D03*
X1277500D02*
D03*
X1167500D02*
D03*
X1057500D02*
D03*
X1497500Y1715000D02*
D03*
X1387500D02*
D03*
X1277500D02*
D03*
X1167500D02*
D03*
X1057500D02*
D03*
X1497500Y1825000D02*
D03*
X1387500D02*
D03*
X1277500D02*
D03*
X1167500D02*
D03*
X1057500D02*
D03*
X1497500Y1935000D02*
D03*
X1387500D02*
D03*
X1277500D02*
D03*
X1167500D02*
D03*
X1057500D02*
D03*
X1497500Y2045000D02*
D03*
X1387500D02*
D03*
X1277500D02*
D03*
X1167500D02*
D03*
X1057500D02*
D03*
X642500Y2730000D02*
D03*
Y2620000D02*
D03*
X532500D02*
D03*
Y2730000D02*
D03*
%TF.MD5,5f3f7ed2cb9bf2685927bb2e0b996ca5*%
M02*
